<?xml version="1.0" encoding="UTF-8"?> <svg xmlns="http://www.w3.org/2000/svg" id="Layer_1" data-name="Layer 1" viewBox="0 0 120 135"><defs><style>.cls-1{fill:#f76300;}.cls-2{fill:#fff;}</style></defs><title>01_INSTANA_IconSet</title><path class="cls-1" d="M52,4.64,9.56,29.15A16,16,0,0,0,1.57,43V92a16,16,0,0,0,8,13.84L52,130.36a16,16,0,0,0,16,0l42.45-24.51a16,16,0,0,0,8-13.84V43a16,16,0,0,0-8-13.84L68,4.64A16,16,0,0,0,52,4.64Z"></path><path class="cls-2" d="M87.71,66.24c.08-2.83-.37-4.4-3.87-4.55s-10.07-.37-13.64-.37-3.58-1.12-3.58-4.54V43.73c0-3.29-.08-5.07-5.77-5.07s-5.93,2-5.93,5.22V56.4c0,4-.52,4.92-5.06,4.92s-4.4-1.94-4.4-4.85V45c0-4.62-.23-6.34-6-6.34S33.67,41,33.67,45V90.68c0,4.63,1,5.67,5.67,5.67H81.82c5.37,0,5.66-1.49,5.89-5.6S87.64,69.07,87.71,66.24ZM75.86,80.33A2.92,2.92,0,0,1,73,83.24H69.52a2.92,2.92,0,0,1-2.91-2.91V76.9A2.92,2.92,0,0,1,69.52,74H73a2.92,2.92,0,0,1,2.91,2.91Z"></path></svg> 