<?xml version="1.0" encoding="utf-8"?>
<svg version="1.1" height="106" width="106"
  xmlns="http://www.w3.org/2000/svg">
  <g id="logo" transform="translate(53, 53)">
    <path id="r" transform="translate(0.5, 0.5)" stroke-width="1" stroke-linejoin="round" d="     M -9,-15 H 4 C 12,-15 12,-7 4,-7 H -9 Z     M -40,22 H 0 V 11 H -9 V 3 H 1 C 12,3 6,22 15,22 H 40     V 3 H 34 V 5 C 34,13 25,12 24,7 C 23,2 19,-2 18,-2 C 33,-10 24,-26 12,-26 H -35     V -15 H -25 V 11 H -40 Z" style="fill: rgb(236, 66, 43); stroke: rgb(236, 66, 43);"/>
    <g id="gear" mask="url(#holes)">
      <circle r="43" stroke-width="9" style="stroke: rgb(236, 66, 43);" fill="none"/>
      <g id="cogs">
        <polygon id="cog" stroke-width="3" stroke-linejoin="round" points="46,3 51,0 46,-3" style="stroke: rgb(236, 66, 43); fill: rgb(236, 66, 43);"/>
        <polygon stroke-width="3" stroke-linejoin="round" points="46,3 51,0 46,-3" transform="matrix(0.9807852804032304, 0.19509032201612825, -0.19509032201612825, 0.9807852804032304, 0, 0)" style="stroke: rgb(236, 66, 43); fill: rgb(236, 66, 43);"/>
        <polygon stroke-width="3" stroke-linejoin="round" points="46,3 51,0 46,-3" transform="matrix(0.9238795325112867, 0.3826834323650898, -0.3826834323650898, 0.9238795325112867, 0, 0)" style="stroke: rgb(236, 66, 43); fill: rgb(236, 66, 43);"/>
        <polygon stroke-width="3" stroke-linejoin="round" points="46,3 51,0 46,-3" transform="matrix(0.8314696123025452, 0.5555702330196022, -0.5555702330196022, 0.8314696123025452, 0, 0)" style="stroke: rgb(236, 66, 43); fill: rgb(236, 66, 43);"/>
        <polygon stroke-width="3" stroke-linejoin="round" points="46,3 51,0 46,-3" transform="matrix(0.7071067811865476, 0.7071067811865475, -0.7071067811865475, 0.7071067811865476, 0, 0)" style="stroke: rgb(236, 66, 43); fill: rgb(236, 66, 43);"/>
        <polygon stroke-width="3" stroke-linejoin="round" points="46,3 51,0 46,-3" transform="matrix(0.5555702330196023, 0.8314696123025451, -0.8314696123025451, 0.5555702330196023, 0, 0)" style="stroke: rgb(236, 66, 43); fill: rgb(236, 66, 43);"/>
        <polygon stroke-width="3" stroke-linejoin="round" points="46,3 51,0 46,-3" transform="matrix(0.38268343236508984, 0.9238795325112867, -0.9238795325112867, 0.38268343236508984, 0, 0)" style="stroke: rgb(236, 66, 43); fill: rgb(236, 66, 43);"/>
        <polygon stroke-width="3" stroke-linejoin="round" points="46,3 51,0 46,-3" transform="matrix(0.1950903220161283, 0.9807852804032304, -0.9807852804032304, 0.1950903220161283, 0, 0)" style="stroke: rgb(236, 66, 43); fill: rgb(236, 66, 43);"/>
        <polygon stroke-width="3" stroke-linejoin="round" points="46,3 51,0 46,-3" transform="matrix(6.123233995736766e-17, 1, -1, 6.123233995736766e-17, 0, 0)" style="stroke: rgb(236, 66, 43); fill: rgb(236, 66, 43);"/>
        <polygon stroke-width="3" stroke-linejoin="round" points="46,3 51,0 46,-3" transform="matrix(-0.1950903220161282, 0.9807852804032304, -0.9807852804032304, -0.1950903220161282, 0, 0)" style="stroke: rgb(236, 66, 43); fill: rgb(236, 66, 43);"/>
        <polygon stroke-width="3" stroke-linejoin="round" points="46,3 51,0 46,-3" transform="matrix(-0.3826834323650897, 0.9238795325112867, -0.9238795325112867, -0.3826834323650897, 0, 0)" style="stroke: rgb(236, 66, 43); fill: rgb(236, 66, 43);"/>
        <polygon stroke-width="3" stroke-linejoin="round" points="46,3 51,0 46,-3" transform="matrix(-0.5555702330196023, 0.8314696123025451, -0.8314696123025451, -0.5555702330196023, 0, 0)" style="stroke: rgb(236, 66, 43); fill: rgb(236, 66, 43);"/>
        <polygon stroke-width="3" stroke-linejoin="round" points="46,3 51,0 46,-3" transform="matrix(-0.7071067811865475, 0.7071067811865476, -0.7071067811865476, -0.7071067811865475, 0, 0)" style="stroke: rgb(236, 66, 43); fill: rgb(236, 66, 43);"/>
        <polygon stroke-width="3" stroke-linejoin="round" points="46,3 51,0 46,-3" transform="matrix(-0.8314696123025453, 0.5555702330196022, -0.5555702330196022, -0.8314696123025453, 0, 0)" style="stroke: rgb(236, 66, 43); fill: rgb(236, 66, 43);"/>
        <polygon stroke-width="3" stroke-linejoin="round" points="46,3 51,0 46,-3" transform="matrix(-0.9238795325112867, 0.38268343236508984, -0.38268343236508984, -0.9238795325112867, 0, 0)" style="stroke: rgb(236, 66, 43); fill: rgb(236, 66, 43);"/>
        <polygon stroke-width="3" stroke-linejoin="round" points="46,3 51,0 46,-3" transform="matrix(-0.9807852804032304, 0.19509032201612816, -0.19509032201612816, -0.9807852804032304, 0, 0)" style="stroke: rgb(236, 66, 43); fill: rgb(236, 66, 43);"/>
        <polygon stroke-width="3" stroke-linejoin="round" points="46,3 51,0 46,-3" transform="matrix(-1, 1.2246467991473532e-16, -1.2246467991473532e-16, -1, 0, 0)" style="stroke: rgb(236, 66, 43); fill: rgb(236, 66, 43);"/>
        <polygon stroke-width="3" stroke-linejoin="round" points="46,3 51,0 46,-3" transform="matrix(-0.9807852804032304, -0.19509032201612836, 0.19509032201612836, -0.9807852804032304, 0, 0)" style="stroke: rgb(236, 66, 43); fill: rgb(236, 66, 43);"/>
        <polygon stroke-width="3" stroke-linejoin="round" points="46,3 51,0 46,-3" transform="matrix(-0.9238795325112867, -0.38268343236508967, 0.38268343236508967, -0.9238795325112867, 0, 0)" style="stroke: rgb(236, 66, 43); fill: rgb(236, 66, 43);"/>
        <polygon stroke-width="3" stroke-linejoin="round" points="46,3 51,0 46,-3" transform="matrix(-0.8314696123025451, -0.5555702330196023, 0.5555702330196023, -0.8314696123025451, 0, 0)" style="stroke: rgb(236, 66, 43); fill: rgb(236, 66, 43);"/>
        <polygon stroke-width="3" stroke-linejoin="round" points="46,3 51,0 46,-3" transform="matrix(-0.7071067811865477, -0.7071067811865475, 0.7071067811865475, -0.7071067811865477, 0, 0)" style="stroke: rgb(236, 66, 43); fill: rgb(236, 66, 43);"/>
        <polygon stroke-width="3" stroke-linejoin="round" points="46,3 51,0 46,-3" transform="matrix(-0.5555702330196022, -0.8314696123025452, 0.8314696123025452, -0.5555702330196022, 0, 0)" style="stroke: rgb(236, 66, 43); fill: rgb(236, 66, 43);"/>
        <polygon stroke-width="3" stroke-linejoin="round" points="46,3 51,0 46,-3" transform="matrix(-0.3826834323650895, -0.9238795325112868, 0.9238795325112868, -0.3826834323650895, 0, 0)" style="stroke: rgb(236, 66, 43); fill: rgb(236, 66, 43);"/>
        <polygon stroke-width="3" stroke-linejoin="round" points="46,3 51,0 46,-3" transform="matrix(-0.19509032201612866, -0.9807852804032303, 0.9807852804032303, -0.19509032201612866, 0, 0)" style="stroke: rgb(236, 66, 43); fill: rgb(236, 66, 43);"/>
        <polygon stroke-width="3" stroke-linejoin="round" points="46,3 51,0 46,-3" transform="matrix(-1.8369701987210297e-16, -1, 1, -1.8369701987210297e-16, 0, 0)" style="stroke: rgb(236, 66, 43); fill: rgb(236, 66, 43);"/>
        <polygon stroke-width="3" stroke-linejoin="round" points="46,3 51,0 46,-3" transform="matrix(0.19509032201612828, -0.9807852804032304, 0.9807852804032304, 0.19509032201612828, 0, 0)" style="stroke: rgb(236, 66, 43); fill: rgb(236, 66, 43);"/>
        <polygon stroke-width="3" stroke-linejoin="round" points="46,3 51,0 46,-3" transform="matrix(0.38268343236509, -0.9238795325112866, 0.9238795325112866, 0.38268343236509, 0, 0)" style="stroke: rgb(236, 66, 43); fill: rgb(236, 66, 43);"/>
        <polygon stroke-width="3" stroke-linejoin="round" points="46,3 51,0 46,-3" transform="matrix(0.5555702330196018, -0.8314696123025456, 0.8314696123025456, 0.5555702330196018, 0, 0)" style="stroke: rgb(236, 66, 43); fill: rgb(236, 66, 43);"/>
        <polygon stroke-width="3" stroke-linejoin="round" points="46,3 51,0 46,-3" transform="matrix(0.7071067811865475, -0.7071067811865477, 0.7071067811865477, 0.7071067811865475, 0, 0)" style="stroke: rgb(236, 66, 43); fill: rgb(236, 66, 43);"/>
        <polygon stroke-width="3" stroke-linejoin="round" points="46,3 51,0 46,-3" transform="matrix(0.8314696123025452, -0.5555702330196022, 0.5555702330196022, 0.8314696123025452, 0, 0)" style="stroke: rgb(236, 66, 43); fill: rgb(236, 66, 43);"/>
        <polygon stroke-width="3" stroke-linejoin="round" points="46,3 51,0 46,-3" transform="matrix(0.9238795325112868, -0.38268343236508956, 0.38268343236508956, 0.9238795325112868, 0, 0)" style="stroke: rgb(236, 66, 43); fill: rgb(236, 66, 43);"/>
        <polygon stroke-width="3" stroke-linejoin="round" points="46,3 51,0 46,-3" transform="matrix(0.9807852804032303, -0.19509032201612872, 0.19509032201612872, 0.9807852804032303, 0, 0)" style="stroke: rgb(236, 66, 43); fill: rgb(236, 66, 43);"/>
      </g>
      <g id="mounts">
        <polygon id="mount" stroke-width="6" stroke-linejoin="round" points="-7,-42 0,-35 7,-42" style="stroke: rgb(236, 66, 43);"/>
        <polygon stroke-width="6" stroke-linejoin="round" points="-7,-42 0,-35 7,-42" transform="matrix(0.30901699437494745, 0.9510565162951535, -0.9510565162951535, 0.30901699437494745, 0, 0)" style="stroke: rgb(236, 66, 43);"/>
        <polygon stroke-width="6" stroke-linejoin="round" points="-7,-42 0,-35 7,-42" transform="matrix(-0.8090169943749473, 0.5877852522924732, -0.5877852522924732, -0.8090169943749473, 0, 0)" style="stroke: rgb(236, 66, 43);"/>
        <polygon stroke-width="6" stroke-linejoin="round" points="-7,-42 0,-35 7,-42" transform="matrix(-0.8090169943749475, -0.587785252292473, 0.587785252292473, -0.8090169943749475, 0, 0)" style="stroke: rgb(236, 66, 43);"/>
        <polygon stroke-width="6" stroke-linejoin="round" points="-7,-42 0,-35 7,-42" transform="matrix(0.30901699437494723, -0.9510565162951536, 0.9510565162951536, 0.30901699437494723, 0, 0)" style="stroke: rgb(236, 66, 43);"/>
      </g>
    </g>
    <mask id="holes">
      <rect x="-60" y="-60" width="120" height="120" fill="white"/>
      <circle id="hole" cy="-40" r="3"/>
      <circle cy="-40" r="3" transform="matrix(0.30901699437494745, 0.9510565162951535, -0.9510565162951535, 0.30901699437494745, 0, 0)"/>
      <circle cy="-40" r="3" transform="matrix(-0.8090169943749473, 0.5877852522924732, -0.5877852522924732, -0.8090169943749473, 0, 0)"/>
      <circle cy="-40" r="3" transform="matrix(-0.8090169943749475, -0.587785252292473, 0.587785252292473, -0.8090169943749475, 0, 0)"/>
      <circle cy="-40" r="3" transform="matrix(0.30901699437494723, -0.9510565162951536, 0.9510565162951536, 0.30901699437494723, 0, 0)"/>
    </mask>
  </g>
</svg>