<svg width="64" height="64" xmlns="http://www.w3.org/2000/svg">

 <g>
  <title>Layer 1</title>
  <path stroke="null" id="svg_1" fill="#68bd45" d="m53.92772,8.08057a24.66681,24.66681 0 0 1 -2.85855,5.06998a26.83308,26.83308 0 1 0 -37.46967,38.41193l0.99159,0.87537a26.82138,26.82138 0 0 0 44.03622,-18.60524c0.73157,-6.83076 -1.27418,-15.4758 -4.69876,-25.7512l-0.00084,-0.00084zm-36.51152,43.63741a2.2942,2.2942 0 1 1 -0.33778,-3.22475a2.2942,2.2942 0 0 1 0.33778,3.22475zm36.40116,-8.03471c-6.62174,8.82062 -20.75981,5.84418 -29.82457,6.27226c0,0 -1.60694,0.09448 -3.22475,0.35951c0,0 0.61034,-0.25918 1.3904,-0.55432c6.3659,-2.21561 9.37494,-2.64201 13.2418,-4.63187c7.28057,-3.70132 14.48254,-11.80709 15.97912,-20.23308c-2.76993,8.10577 -11.18087,15.07616 -18.83683,17.90712c-5.24722,1.93385 -14.72668,3.81753 -14.72668,3.81753l-0.38209,-0.20484c-6.4495,-3.13529 -6.64849,-17.10365 5.08085,-21.60843c5.13603,-1.97816 10.04966,-0.8921 15.5962,-2.21561c5.92278,-1.40712 12.77527,-5.84418 15.56359,-11.63486c3.11857,9.26374 6.8759,23.76301 0.13879,32.73245l0.00418,-0.00585z"/>
 </g>
</svg>